<?xml version="1.0" standalone="no"?>
<!DOCTYPE svg PUBLIC "-//W3C//DTD SVG 20010904//EN"
 "http://www.w3.org/TR/2001/REC-SVG-20010904/DTD/svg10.dtd">
<svg version="1.0" xmlns="http://www.w3.org/2000/svg"
 width="256.000000pt" height="256.000000pt" viewBox="0 0 256.000000 256.000000"
 preserveAspectRatio="xMidYMid meet">
<metadata>
Created by potrace 1.14, written by Peter Selinger 2001-2017
</metadata>
<g transform="translate(0.000000,256.000000) scale(0.100000,-0.100000)"
fill="#000000" stroke="none">
<path d="M1170 2334 c-14 -2 -65 -9 -115 -15 -248 -31 -526 -170 -714 -358
-99 -99 -157 -181 -220 -311 -117 -241 -135 -509 -50 -755 145 -418 590 -708
1084 -708 195 0 413 52 585 138 l65 33 95 -25 c134 -34 326 -42 491 -18 130
18 159 28 113 39 -73 19 -205 96 -318 186 l-77 63 24 26 c181 196 287 519 257
781 -12 102 -58 260 -95 325 -13 22 -34 60 -48 85 -129 225 -411 417 -717 486
-100 22 -301 38 -360 28z m175 -109 c65 -6 194 -38 237 -60 23 -11 26 -11 21
1 -3 8 -9 14 -14 14 -5 0 -9 4 -9 9 0 4 23 -3 51 -16 37 -18 49 -29 45 -40 -5
-13 -4 -14 8 -4 20 17 79 4 72 -15 -3 -7 -2 -13 2 -12 13 4 87 -30 111 -51 13
-12 30 -21 37 -21 20 0 172 -155 217 -223 58 -85 114 -200 133 -272 45 -170
18 -432 -57 -569 -6 -10 -17 -35 -24 -55 -11 -31 -87 -156 -113 -187 -5 -6
-16 -27 -23 -48 -8 -21 -20 -41 -26 -43 -38 -15 23 -118 107 -182 20 -15 22
-21 12 -33 -15 -18 -78 -14 -207 13 -49 10 -106 19 -126 19 -34 0 -107 -24
-119 -39 -6 -7 -60 -29 -115 -45 -22 -7 -47 -15 -55 -18 -74 -29 -249 -58
-349 -58 -75 0 -291 29 -316 42 -21 12 -146 56 -182 65 -13 3 -23 9 -23 13 0
5 -9 11 -20 15 -20 6 -109 65 -144 94 -64 54 -186 189 -206 229 -14 26 -30 52
-37 59 -6 7 -14 26 -18 43 -4 16 -10 30 -15 30 -4 0 -20 37 -34 83 -46 138
-46 410 -1 500 8 17 15 38 15 49 0 16 20 63 85 198 12 27 15 29 12 10 -3 -14
-8 -41 -11 -60 l-6 -35 13 37 c6 20 15 40 19 44 5 4 8 16 8 26 0 10 4 18 9 18
5 0 13 12 19 28 12 34 90 138 133 177 180 163 405 255 684 279 40 3 84 1 200
-9z"/>
<path d="M1759 1792 c-24 -26 -64 -71 -89 -100 -25 -29 -61 -70 -80 -90 -19
-20 -92 -103 -162 -183 l-126 -145 71 -75 c40 -41 140 -147 223 -234 301 -318
307 -325 287 -325 -5 0 -81 -38 -169 -85 l-159 -86 -19 23 c-38 47 -92 112
-122 147 -34 39 -194 233 -327 398 l-82 101 -3 -309 -2 -309 -180 0 -180 0 -2
408 c-2 465 -14 426 -24 -79 -6 -313 -3 -349 31 -349 8 0 15 -3 15 -7 0 -5 75
-7 167 -6 137 2 168 5 175 18 5 8 17 15 26 16 9 0 13 2 7 5 -8 3 -13 456 -6
518 2 14 41 -25 41 -41 0 -8 4 -12 8 -9 5 3 19 -13 33 -34 13 -22 27 -40 32
-40 4 0 7 -7 7 -15 0 -7 6 -18 13 -22 6 -4 25 -25 40 -46 16 -20 33 -35 38
-32 5 4 9 0 9 -7 0 -7 11 -25 24 -40 14 -14 22 -29 19 -32 -4 -3 1 -6 10 -6 9
0 17 -4 17 -8 0 -5 15 -23 33 -42 17 -18 25 -30 17 -25 -15 9 18 -29 93 -109
28 -30 34 -42 25 -49 -9 -6 -8 -7 5 -3 11 3 20 0 23 -9 4 -8 12 -15 19 -15 7
0 15 -6 18 -12 4 -10 7 -10 18 -1 7 7 19 13 27 13 8 0 28 12 45 26 18 15 38
24 49 20 14 -3 18 0 14 10 -5 12 -1 14 17 8 12 -3 19 -3 15 1 -9 10 54 45 66
37 5 -3 6 1 1 8 -6 10 -4 12 10 7 12 -5 29 4 56 30 45 44 48 64 16 90 -13 10
-26 26 -30 36 -3 9 -11 17 -17 17 -6 0 -8 5 -4 12 4 6 3 8 -4 4 -15 -9 -84 84
-77 103 5 13 4 14 -6 3 -7 -6 -17 -12 -23 -12 -5 0 -7 3 -3 6 6 6 -23 44 -35
44 -11 0 -48 38 -48 49 0 5 -17 23 -38 39 -21 17 -44 42 -52 56 -7 14 -20 26
-27 26 -7 0 -16 8 -20 18 -6 17 -73 97 -73 87 0 -3 -18 11 -40 31 -45 42 -49
74 -15 111 11 12 25 28 30 35 22 29 149 174 167 190 10 9 18 19 18 23 0 4 9
17 19 29 66 72 119 133 138 159 13 17 26 33 30 36 12 9 36 41 31 41 -3 0 -25
-21 -49 -48z"/>
<path d="M1133 1588 c-15 -20 -25 -38 -20 -38 3 0 12 11 21 25 17 26 16 35 -1
13z"/>
<path d="M1051 1488 c-18 -23 -26 -26 -37 -17 -12 9 -14 4 -14 -30 0 -22 2
-41 3 -41 7 0 80 111 76 114 -2 2 -15 -10 -28 -26z"/>
</g>
</svg>
